<svg width="95" height="131" viewBox="0 0 95 131" fill="none" xmlns="http://www.w3.org/2000/svg">
<path d="M95 131H49.805C34.0405 115.781 21.5079 97.5547 12.953 77.4068C4.39816 57.259 -0.00407719 35.601 0.00831179 13.7219C-0.0027706 13.5596 -0.0027706 13.3966 0.00831179 13.2343C0.151479 9.67629 1.66974 6.31153 4.24515 3.84461C6.82057 1.3777 10.2534 0 13.8247 0C17.396 0 20.8288 1.3777 23.4042 3.84461C25.9796 6.31153 27.4979 9.67629 27.641 13.2343C27.6521 13.3966 27.6521 13.5596 27.641 13.7219C27.6553 37.4258 33.8774 60.7152 45.6917 81.2849C57.506 101.855 74.5028 118.992 95 131Z" fill="url(#paint0_linear_1_23)"/>
<defs>
<linearGradient id="paint0_linear_1_23" x1="47.5" y1="0" x2="47.5" y2="131" gradientUnits="userSpaceOnUse">
<stop stop-color="#D992EF"/>
<stop offset="1" stop-color="#28D6FB"/>
</linearGradient>
</defs>
</svg>
