<svg width="237" height="53" viewBox="0 0 237 53" fill="none" xmlns="http://www.w3.org/2000/svg">
<path d="M38.713 25.2749C38.3864 25.329 38.0598 25.3561 37.7333 25.3561C33.583 25.3561 29.7185 26.6286 26.4936 28.8082C25.4594 24.0971 22.806 19.9681 19.132 17.0575C22.942 14.5666 27.2964 12.8202 31.9909 12.035C35.1615 15.8256 37.4883 20.3472 38.713 25.2749Z" fill="#161B45"/>
<path d="M25.337 29.6339C24.6838 30.1484 24.0715 30.6763 23.5 31.2449C19.8532 34.873 17.5807 39.8955 17.5807 45.3918C17.5399 47.26 16.7507 48.9657 15.4988 50.1841C14.2469 51.4296 12.5596 52.1877 10.641 52.1877C6.8309 52.1877 3.76924 49.1553 3.7012 45.4053V45.1752C3.78285 33.8983 9.4027 23.921 18.0162 17.8291C21.7582 20.6585 24.4389 24.8281 25.337 29.6339ZM37.7333 11.5341C36.2909 11.5341 34.8485 11.6153 33.4606 11.8048C36.5086 15.6224 38.7675 20.1034 39.9649 24.977C42.7136 24.0564 44.6867 21.4842 44.6867 18.4383C44.6867 14.6071 41.557 11.5341 37.7333 11.5341Z" fill="url(#paint0_linear_107_3)"/>
<path d="M39.6792 33.235C39.6792 36.7142 36.8624 39.53 33.3926 39.53C29.8546 39.53 26.9563 36.7006 26.9563 33.235C26.9563 31.7052 26.793 30.2296 26.4664 28.8082C25.4322 24.0971 22.7788 19.9681 19.1048 17.0575C15.5805 14.2687 11.1172 12.59 6.27301 12.59C2.81673 12.59 0 9.7742 0 6.29502C0 2.81584 2.81673 0 6.28662 0C16.601 0 25.8541 4.68404 31.9638 12.035C35.1615 15.8255 37.4884 20.3471 38.713 25.2884C39.3526 27.8199 39.6792 30.4868 39.6792 33.235Z" fill="url(#paint1_linear_107_3)"/>
<path d="M72.5546 26.3037C71.3436 24.7604 68.9078 24.0294 67.0708 24.0294C64.9345 24.0294 61.9681 24.9906 61.9681 27.5492C61.9681 33.7765 77.7935 29.7694 77.7935 41.7502C77.7935 49.3855 71.6293 53 64.5399 53C60.1175 53 56.2393 51.7004 52.9872 48.695L58.3757 42.8062C59.927 44.8368 62.4579 46.0417 64.9753 46.0417C67.4518 46.0417 70.2141 44.8774 70.2141 42.4677C70.2141 36.1862 54.103 39.5706 54.103 28.1719C54.103 20.8751 60.4576 17.0575 67.2069 17.0575C71.085 17.0575 74.8271 18.0728 77.739 20.6314L72.5546 26.3037Z" fill="white"/>
<path d="M90.0809 24.6115H80.2836V17.9509H107.471V24.6115H97.6602V52.1336H90.0809V24.6115Z" fill="white"/>
<path d="M111.295 17.9374H124.603C131.638 17.9374 137.557 20.3471 137.557 28.3208C137.557 33.0996 134.985 36.8224 130.128 37.6888L138.864 52.1335H129.787L122.603 38.4605H118.861V52.1335H111.281V17.9374H111.295ZM118.874 32.0978H123.337C126.1 32.0978 129.692 32.003 129.692 28.2802C129.692 24.8551 126.59 24.3136 123.814 24.3136H118.861V32.0978H118.874Z" fill="white"/>
<path d="M156.022 17.9374H162.282L177.236 52.1335H168.691L165.724 44.8909H152.376L149.518 52.1335H141.163L156.022 17.9374ZM158.934 27.8876L154.757 38.5146H163.153L158.934 27.8876Z" fill="white"/>
<path d="M201.226 26.8317C199.716 25.0447 197.539 24.0294 194.722 24.0294C188.993 24.0294 184.775 28.6593 184.775 35.0355C184.775 41.4118 188.993 46.0417 194.49 46.0417C197.552 46.0417 200.029 44.6879 201.58 42.373L207.894 47.057C205.036 51.1183 200.178 53 195.47 53C184.748 53 176.923 46.0011 176.923 35.0355C176.923 24.07 184.734 17.071 195.47 17.071C199.307 17.071 204.165 18.3707 207.077 22.0935L201.226 26.8317Z" fill="white"/>
<path d="M219.623 24.6115H209.812V17.9509H237V24.6115H227.189V52.1336H219.61V24.6115H219.623Z" fill="white"/>
<defs>
<linearGradient id="paint0_linear_107_3" x1="3.69045" y1="31.8595" x2="44.6848" y2="31.8595" gradientUnits="userSpaceOnUse">
<stop stop-color="#25D7FB"/>
<stop offset="1" stop-color="#DF8FEE"/>
</linearGradient>
<linearGradient id="paint1_linear_107_3" x1="0" y1="19.7658" x2="39.6852" y2="19.7658" gradientUnits="userSpaceOnUse">
<stop stop-color="#25D7FB"/>
<stop offset="1" stop-color="#DF8FEE"/>
</linearGradient>
</defs>
</svg>
