<svg width="183" height="42" viewBox="0 0 183 42" fill="none" xmlns="http://www.w3.org/2000/svg">
<path d="M30.259 20.0083C30.0086 20.0499 29.7582 20.0707 29.5078 20.0707C26.3256 20.0707 23.3625 21.0483 20.8898 22.7225C20.0968 19.1036 18.0623 15.9318 15.2453 13.696C18.1667 11.7825 21.5054 10.441 25.1049 9.83789C27.5359 12.7497 29.32 16.223 30.259 20.0083Z" fill="#161B45"/>
<path d="M20.0025 23.3571C19.5017 23.7522 19.0322 24.1578 18.594 24.5946C15.7978 27.3816 14.0554 31.2397 14.0554 35.4618C14.0241 36.8969 13.419 38.2072 12.4591 39.1431C11.4992 40.0998 10.2055 40.6822 8.73437 40.6822C5.81302 40.6822 3.4655 38.3528 3.41333 35.4722V35.2954C3.47593 26.6328 7.78493 18.9686 14.3893 14.2889C17.2585 16.4624 19.3139 19.6653 20.0025 23.3571ZM29.5073 9.45331C28.4014 9.45331 27.2954 9.5157 26.2312 9.66129C28.5683 12.5939 30.3003 16.036 31.2184 19.7797C33.3259 19.0726 34.8388 17.0967 34.8388 14.7569C34.8388 11.8139 32.4391 9.45331 29.5073 9.45331Z" fill="url(#paint0_linear_107_2)"/>
<path d="M31.002 26.1231C31.002 28.7957 28.8423 30.9588 26.1817 30.9588C23.469 30.9588 21.2467 28.7853 21.2467 26.1231C21.2467 24.948 21.1215 23.8145 20.8711 22.7226C20.0782 19.1036 18.0437 15.9319 15.2266 13.696C12.5244 11.5538 9.10223 10.2643 5.38793 10.2643C2.73784 10.2643 0.578125 8.10126 0.578125 5.42866C0.578125 2.75606 2.73784 0.593018 5.39837 0.593018C13.3069 0.593018 20.4016 4.19115 25.0862 9.83793C27.5381 12.7497 29.3222 16.2231 30.2612 20.0188C30.7516 21.9634 31.002 24.0121 31.002 26.1231Z" fill="url(#paint1_linear_107_2)"/>
<path d="M56.2112 20.7982C55.2826 19.6127 53.4151 19.0511 52.0065 19.0511C50.3685 19.0511 48.094 19.7894 48.094 21.7549C48.094 26.5385 60.2281 23.4604 60.2281 32.6637C60.2281 38.5289 55.5017 41.3054 50.0659 41.3054C46.6751 41.3054 43.7015 40.3071 41.2079 37.9985L45.3396 33.4748C46.529 35.0347 48.4696 35.9602 50.3998 35.9602C52.2987 35.9602 54.4167 35.0659 54.4167 33.2148C54.4167 28.3896 42.0635 30.9894 42.0635 22.2333C42.0635 16.6281 46.9359 13.6955 52.1109 13.6955C55.0844 13.6955 57.9536 14.4754 60.1863 16.4409L56.2112 20.7982Z" fill="#161B45"/>
<path d="M69.6477 19.4991H62.1356V14.3827H82.9816V19.4991H75.4591V40.6407H69.6477V19.4991Z" fill="#161B45"/>
<path d="M85.9128 14.3714H96.1167C101.511 14.3714 106.049 16.2225 106.049 22.3476C106.049 26.0185 104.077 28.8783 100.353 29.5439L107.051 40.6398H100.092L94.583 30.1366H91.7138V40.6398H85.9024V14.3714H85.9128ZM91.7243 25.249H95.1464C97.2644 25.249 100.019 25.1762 100.019 22.3164C100.019 19.6854 97.64 19.2694 95.5116 19.2694H91.7138V25.249H91.7243Z" fill="#161B45"/>
<path d="M120.208 14.3714H125.007L136.474 40.6398H129.921L127.647 35.0763H117.412L115.221 40.6398H108.815L120.208 14.3714ZM122.441 22.0148L119.238 30.1782H125.675L122.441 22.0148Z" fill="#161B45"/>
<path d="M154.869 21.2046C153.711 19.8319 152.041 19.052 149.882 19.052C145.489 19.052 142.255 22.6085 142.255 27.5066C142.255 32.4046 145.489 35.9611 149.704 35.9611C152.052 35.9611 153.951 34.9212 155.14 33.1429L159.981 36.7411C157.79 39.8608 154.066 41.3063 150.456 41.3063C142.234 41.3063 136.235 35.9299 136.235 27.5066C136.235 19.0832 142.224 13.7068 150.456 13.7068C153.398 13.7068 157.123 14.7051 159.355 17.5649L154.869 21.2046Z" fill="#161B45"/>
<path d="M168.974 19.4991H161.451V14.3827H182.297V19.4991H174.775V40.6407H168.963V19.4991H168.974Z" fill="#161B45"/>
<defs>
<linearGradient id="paint0_linear_107_2" x1="3.40509" y1="25.0667" x2="34.8373" y2="25.0667" gradientUnits="userSpaceOnUse">
<stop stop-color="#25D7FB"/>
<stop offset="1" stop-color="#DF8FEE"/>
</linearGradient>
<linearGradient id="paint1_linear_107_2" x1="0.578125" y1="15.7765" x2="31.0066" y2="15.7765" gradientUnits="userSpaceOnUse">
<stop stop-color="#25D7FB"/>
<stop offset="1" stop-color="#DF8FEE"/>
</linearGradient>
</defs>
</svg>
